<svg width="20" height="20" viewBox="0 0 20 20" fill="none" xmlns="http://www.w3.org/2000/svg">
<g id="icon:twitter">
<path id="Vector" d="M19.3275 5.38576C19.2802 5.27155 19.2001 5.17393 19.0973 5.10523C18.9946 5.03653 18.8737 4.99985 18.7501 4.99983H16.3728C16.0404 4.43434 15.5673 3.96448 14.9996 3.63592C14.4319 3.30737 13.7888 3.1313 13.1329 3.12483C12.6443 3.11842 12.1593 3.20981 11.7064 3.39362C11.2536 3.57743 10.8422 3.84995 10.4962 4.19514C10.1402 4.54453 9.85759 4.96158 9.66506 5.42177C9.47253 5.88196 9.37395 6.37599 9.37512 6.87483V7.35061C6.22981 6.52092 3.65715 3.96233 3.62981 3.93498C3.54596 3.85039 3.43968 3.79152 3.32349 3.7653C3.20731 3.73908 3.08605 3.74661 2.974 3.787C2.86194 3.82739 2.76376 3.89895 2.69102 3.99327C2.61828 4.08758 2.574 4.20072 2.5634 4.31936C2.22668 8.05295 3.31106 10.5514 4.28215 11.9897C4.75565 12.7007 5.33167 13.3378 5.99153 13.8803C4.80168 15.2498 2.92825 15.9694 2.90793 15.9772C2.81974 16.0102 2.74015 16.0627 2.67512 16.1308C2.61008 16.199 2.56128 16.2809 2.53236 16.3705C2.50343 16.4601 2.49514 16.5551 2.50809 16.6484C2.52104 16.7417 2.55491 16.8308 2.60715 16.9092C2.66575 16.9967 2.90012 17.3037 3.47278 17.5905C4.18059 17.9451 5.11575 18.1248 6.25012 18.1248C11.7712 18.1248 16.3845 13.8733 16.8556 8.40295L19.1923 6.06701C19.2797 5.97956 19.3392 5.86815 19.3632 5.74689C19.3873 5.62563 19.3748 5.49995 19.3275 5.38576ZM15.8118 7.68342C15.7047 7.79084 15.6403 7.93357 15.6306 8.08498C15.3126 13.0139 11.1939 16.8748 6.25012 16.8748C5.42512 16.8748 4.84387 16.7655 4.43606 16.6342C5.33528 16.1459 6.58918 15.3061 7.39543 14.0967C7.44275 14.0256 7.475 13.9455 7.49017 13.8615C7.50534 13.7774 7.50312 13.6911 7.48365 13.608C7.46417 13.5248 7.42786 13.4465 7.37694 13.3779C7.32603 13.3093 7.26159 13.2519 7.18762 13.2092C7.1509 13.1881 3.75715 11.1514 3.75012 5.7092C5.00012 6.72483 7.28528 8.30061 9.89621 8.73967C9.9857 8.75476 10.0774 8.75018 10.1649 8.72625C10.2525 8.70232 10.3337 8.65962 10.4031 8.60111C10.4725 8.5426 10.5283 8.46968 10.5666 8.38743C10.6049 8.30518 10.6249 8.21557 10.6251 8.12483V6.87483C10.6244 6.54143 10.6904 6.21126 10.8192 5.90374C10.948 5.59623 11.137 5.31758 11.3751 5.0842C11.6034 4.85553 11.8751 4.67493 12.1744 4.55309C12.4736 4.43125 12.7942 4.37063 13.1173 4.37483C14.1064 4.38733 15.0306 4.99045 15.4173 5.87561C15.4661 5.98689 15.5462 6.08156 15.6479 6.14802C15.7496 6.21448 15.8685 6.24986 15.99 6.24983H17.24L15.8118 7.68342Z" fill="white"/>
</g>
</svg>
